<?xml version="1.0" encoding="utf-8"?>
<!-- Generator: Adobe Illustrator 18.1.1, SVG Export Plug-In . SVG Version: 6.00 Build 0)  -->
<svg version="1.1" id="Слой_1" xmlns="http://www.w3.org/2000/svg" xmlns:xlink="http://www.w3.org/1999/xlink" x="0px" y="0px"
	 viewBox="0 0 32 32" enable-background="new 0 0 32 32" xml:space="preserve">
<g>
	<path fill-rule="evenodd" clip-rule="evenodd" fill="#69727E" d="M15.99,32C24.8,32,32,24.8,32,16.01C32,7.2,24.8,0,15.99,0
		C7.2,0,0,7.2,0,16.01C0,24.8,7.2,32,15.99,32L15.99,32z"/>
	<path fill-rule="evenodd" clip-rule="evenodd" fill="#FFFFFF" d="M26.02,16.01c0,0.92-0.12,1.81-0.36,2.65
		c-1.16,4.23-5.06,7.37-9.68,7.37c-0.35,0-0.7-0.02-1.04-0.05c-5.03-0.53-8.97-4.81-8.97-9.97c0-5.53,4.5-10.04,10.01-10.04
		C21.52,5.97,26.02,10.48,26.02,16.01z"/>
	<g>
		<path fill="#BABABA" d="M17.86,29.7l-0.16-1.19c1.11-0.15,2.12-0.42,3.07-0.83l0.47,1.1C20.2,29.23,19.06,29.54,17.86,29.7z
			 M14.14,29.7c-1.24-0.17-2.38-0.48-3.39-0.92l0.48-1.1c0.9,0.39,1.94,0.67,3.07,0.83L14.14,29.7z M24.45,26.94l-0.73-0.95
			c0.85-0.66,1.62-1.42,2.27-2.27l0.95,0.73C26.22,25.38,25.38,26.22,24.45,26.94z M7.55,26.94c-0.93-0.72-1.77-1.56-2.49-2.49
			l0.95-0.73c0.66,0.85,1.42,1.62,2.27,2.27L7.55,26.94z M3.21,21.24c-0.44-1.04-0.75-2.18-0.91-3.38l1.19-0.16
			c0.15,1.11,0.42,2.12,0.83,3.07L3.21,21.24z M28.79,21.23l-1.11-0.45c0.42-1.04,0.7-2.08,0.83-3.09l1.19,0.16
			C29.54,18.97,29.24,20.1,28.79,21.23z M28.51,14.3c-0.14-1.01-0.42-2.05-0.83-3.09l1.11-0.45c0.45,1.13,0.76,2.26,0.91,3.37
			L28.51,14.3z M3.49,14.3L2.3,14.14c0.16-1.2,0.47-2.34,0.91-3.38l1.1,0.47C3.91,12.18,3.64,13.19,3.49,14.3z M6.01,8.28L5.06,7.55
			c0.72-0.93,1.56-1.77,2.49-2.49l0.73,0.95C7.43,6.67,6.67,7.43,6.01,8.28z M25.99,8.28c-0.66-0.85-1.42-1.62-2.27-2.27l0.73-0.95
			c0.93,0.72,1.77,1.56,2.49,2.49L25.99,8.28z M20.77,4.32c-0.95-0.41-1.96-0.68-3.07-0.83l0.16-1.19c1.21,0.16,2.34,0.47,3.38,0.91
			L20.77,4.32z M11.23,4.32l-0.48-1.1c1-0.44,2.14-0.75,3.39-0.92l0.16,1.19C13.17,3.64,12.13,3.92,11.23,4.32z"/>
	</g>
	<path fill-rule="evenodd" clip-rule="evenodd" fill="#62C154" d="M11.38,22.07V9.91c0-0.18,0.08-0.33,0.2-0.43
		c0.15-0.08,0.3-0.08,0.45,0l10.32,6.06c0.15,0.1,0.25,0.25,0.25,0.45c0,0.18-0.1,0.35-0.25,0.43l-10.32,6.09
		c-0.15,0.08-0.3,0.08-0.45-0.03C11.45,22.39,11.38,22.24,11.38,22.07L11.38,22.07z"/>
	<linearGradient id="SVGID_1_" gradientUnits="userSpaceOnUse" x1="16.461" y1="19.1146" x2="16.461" y2="10.7396">
		<stop  offset="0" style="stop-color:#62C154"/>
		<stop  offset="1" style="stop-color:#72E062"/>
	</linearGradient>
	<path fill-rule="evenodd" clip-rule="evenodd" fill="url(#SVGID_1_)" d="M12.38,19.02v-7.64c0-0.11,0.05-0.21,0.13-0.27
		c0.09-0.05,0.19-0.05,0.28,0l7.59,4.33c0.09,0.06,0.16,0.16,0.16,0.28c0,0.11-0.06,0.22-0.16,0.27l-7.59,3.31
		c-0.09,0.05-0.19,0.05-0.28-0.02C12.43,19.23,12.38,19.13,12.38,19.02L12.38,19.02z"/>
</g>
<g>
</g>
<g>
</g>
<g>
</g>
<g>
</g>
<g>
</g>
<g>
</g>
<g>
</g>
<g>
</g>
<g>
</g>
<g>
</g>
<g>
</g>
<g>
</g>
<g>
</g>
<g>
</g>
<g>
</g>
</svg>
